<svg height="512" viewBox="0 0 512 512" width="512" xmlns="http://www.w3.org/2000/svg" xmlns:xlink="http://www.w3.org/1999/xlink"><linearGradient id="linear-gradient" gradientUnits="userSpaceOnUse" x1="139.518" x2="373.354" y1="373.36" y2="139.524"><stop offset="0" stop-color="#41dfd0"/><stop offset="1" stop-color="#ee83ef"/></linearGradient><g id="gradient"><path d="m425.229 196.85-72.113-72.115a8 8 0 0 0 -13.564 6.874l6.629 43.085a146.7 146.7 0 0 0 -44.976 7.4c-4.484-74.694-66.665-134.094-142.468-134.094-78.706 0-142.737 64.031-142.737 142.737a142.643 142.643 0 0 0 67.431 121.27l69.649 69.65a8 8 0 0 0 13.565-6.874l-6.358-41.317a142.232 142.232 0 0 0 39.815-6.113c2.752 78.907 67.79 142.254 147.357 142.254 81.309 0 147.458-66.149 147.458-147.459a147.359 147.359 0 0 0 -69.688-125.3zm-266.492 120.624c-2.349 0-4.824-.074-7.353-.218a8 8 0 0 0 -8.363 9.2l4.093 26.6-53.029-53.03a7.985 7.985 0 0 0 -1.477-1.163 126.758 126.758 0 1 1 66.129 18.6zm188.722 136.133c-72.486 0-131.459-58.972-131.459-131.459 0-.228.009-.454.01-.681a143.01 143.01 0 0 0 85.215-122.409 130.714 130.714 0 0 1 46.234-8.369c2.441 0 5.006.077 7.624.227a8 8 0 0 0 8.365-9.2l-4.366-28.383 55.492 55.494a8.009 8.009 0 0 0 1.477 1.163 130.688 130.688 0 0 1 62.866 112.162c0 72.483-58.972 131.455-131.458 131.455zm3.824-184.918a8 8 0 0 0 -14.566 0l-40 88a8 8 0 0 0 14.566 6.622l8.778-19.311h47.878l8.778 19.311a8 8 0 0 0 14.566-6.622zm-23.95 59.311 16.667-36.667 16.667 36.667zm-133.033-129.486a64.367 64.367 0 0 0 -14.624-9.448c.044-1.095.065-2.2.065-3.3v-9.766a8 8 0 0 0 -16 0v8.029a63.961 63.961 0 0 0 -16-.783v-23.246h40a8 8 0 0 0 0-16h-40v-24a8 8 0 0 0 -16 0v24h-32a8 8 0 0 0 0 16h32v26.57a64.256 64.256 0 0 0 -16.394 8.452 31.573 31.573 0 0 0 -6.3 45.413 31.573 31.573 0 0 0 46.977 2.6 80.5 80.5 0 0 0 21.22-37.163 48.542 48.542 0 0 1 6.648 4.789 19.62 19.62 0 0 1 1.1 28.773 8 8 0 0 0 11.308 11.315 35.624 35.624 0 0 0 -2.007-52.235zm-72.763 31.925a15.571 15.571 0 0 1 3.11-22.4 48.349 48.349 0 0 1 7.094-4.2v32.3a15.351 15.351 0 0 1 -10.207-5.7zm26.2-1.969v-29.155a47.552 47.552 0 0 1 14.44.711 64.386 64.386 0 0 1 -14.439 28.444z" fill="url(#linear-gradient)"/></g></svg>