<svg id="Layer_1" enable-background="new 0 0 512.001 512.001" height="512" viewBox="0 0 512.001 512.001" width="512" xmlns="http://www.w3.org/2000/svg"><g><path d="m416.205 434.608-153.638 75.936c-3.925 1.94-8.53 1.944-12.458.01l-154.293-75.952c-4.813-2.369-7.862-7.268-7.862-12.633v-76.226l162.157 79.73c3.927 1.931 8.529 1.926 12.452-.013l161.484-79.813v76.339c0 5.355-3.04 10.248-7.842 12.622z" fill="#ff6326"/><path d="m424.047 346.684-161.48 79.812c-3.925 1.94-8.53 1.944-12.458.01l-162.155-79.822v-84.99l162.157 79.73c3.927 1.931 8.529 1.926 12.452-.013l161.484-79.813z" fill="#ffec29"/><path d="m424.047 262.451-161.48 79.812c-3.925 1.94-8.53 1.944-12.458.01l-162.155-79.822v-72.926c0-5.562 5.834-9.195 10.826-6.741l151.332 74.407c3.927 1.931 8.529 1.926 12.452-.013l150.644-74.456c4.992-2.467 10.84 1.165 10.84 6.734v72.995z" fill="#ff6326"/><path d="m256.001 15.426 24.477 49.596 54.733 7.954-39.605 38.605 9.349 54.511-48.954-25.736-48.955 25.736 9.349-54.511-39.605-38.605 54.733-7.954z" fill="#ffec29"/><path d="m280.478 65.022-24.477-49.596-.144.291v124.714l.144-.075 48.954 25.736-9.35-54.511 39.606-38.605z" fill="#ffcb00"/><path d="m255.857 426.909v85.084c2.292.077 4.599-.406 6.71-1.449l153.638-75.936c4.802-2.374 7.842-7.266 7.842-12.623v-76.339l-161.484 79.813c-2.109 1.043-4.414 1.526-6.706 1.45z" fill="#ff1f3d"/><path d="m255.857 342.861v85.084c2.292.077 4.599-.406 6.71-1.449l161.48-79.812v-85.086l-161.484 79.813c-2.109 1.043-4.414 1.526-6.706 1.45z" fill="#ffcb00"/><path d="m413.207 182.723-150.644 74.456c-2.109 1.042-4.415 1.526-6.706 1.45v85.084c2.292.077 4.599-.406 6.71-1.449l161.48-79.812v-72.995c0-5.569-5.847-9.202-10.84-6.734z" fill="#ff1f3d"/><path d="m304.953 181.519c-2.455 0-4.919-.586-7.177-1.772 0 0-39.008-20.507-39.008-20.507-1.733-.911-3.803-.911-5.536 0l-38.684 20.337c-11.415 6.192-24.884-3.424-22.706-16.092 0 0 7.45-43.436 7.45-43.436.331-1.93-.309-3.899-1.711-5.265l-31.298-30.508c-9.417-8.943-4.43-24.722 8.289-26.567l43.612-6.337c1.938-.282 3.613-1.498 4.479-3.254l19.342-39.192c5.596-11.719 22.144-11.855 27.829-.328l19.504 39.519c.867 1.756 2.542 2.973 4.479 3.254l43.612 6.337c5.811.845 10.639 4.915 12.453 10.499 1.815 5.585.301 11.715-3.904 15.814l-31.558 30.761c-1.402 1.367-2.042 3.336-1.711 5.266l7.451 43.436c.992 5.787-1.386 11.637-6.137 15.088-2.687 1.953-5.871 2.947-9.07 2.947zm-95.012-97.772 17.222 16.787c3.636 3.544 5.295 8.65 4.437 13.654l-4.066 23.704 21.288-11.191c4.493-2.363 9.862-2.363 14.357 0l21.287 11.191-4.066-23.704c-.859-5.005.8-10.111 4.437-13.655l17.222-16.787-23.801-3.458c-5.025-.73-9.367-3.886-11.615-8.439l-10.644-21.567-10.642 21.568c-2.247 4.553-6.591 7.709-11.615 8.439z" fill="#ffcb00"/><path d="m337.429 57.709-43.612-6.337c-1.938-.281-3.613-1.499-4.479-3.254l-19.504-39.52c-2.62-5.308-8.049-8.652-13.977-8.598v50.572l.143-.29 10.644 21.567c2.248 4.552 6.59 7.709 11.615 8.439l23.8 3.458-17.222 16.787c-3.637 3.544-5.296 8.65-4.437 13.655l4.066 23.704-21.287-11.191c-2.291-1.204-4.809-1.795-7.322-1.771v33.628c.998-.024 2.001.203 2.912.681l39.008 20.507c5.182 2.726 11.486 2.285 16.246-1.174 4.751-3.451 7.13-9.301 6.137-15.088l-7.451-43.436c-.331-1.93.309-3.899 1.711-5.266l31.558-30.761c4.205-4.099 5.719-10.229 3.904-15.814-1.814-5.584-6.642-9.654-12.453-10.498z" fill="#ff9d21"/></g></svg>